<svg xmlns="http://www.w3.org/2000/svg" viewBox="0 0 17.207 20.029"><defs><style>.a{fill:#f8f8f8;}</style></defs><g transform="translate(-348 -18.971)"><path class="a" d="M4.1,41v2.822a.324.324,0,0,0,.04.155c.406,1.685,4.043,2.942,8.563,2.942s8.14-1.252,8.56-2.931a.342.342,0,0,0,.043-.167V41c-1.423,1-4.355,1.789-8.6,1.789S5.523,42,4.1,41Z" transform="translate(343.9 -7.92)"/><path class="a" d="M13.6,29.745q-.449.014-.9.014c-.3,0-.6,0-.9-.014a20.2,20.2,0,0,1-5.989-.935A7.033,7.033,0,0,1,4.1,28v3.235c.979,1.022,4.265,1.965,8.6,1.965s7.624-.943,8.6-1.965V28a7.05,7.05,0,0,1-1.729.815A20.232,20.232,0,0,1,13.6,29.745Z" transform="translate(343.9 0.607)"/><path class="a" d="M4.1,14.889v3.235c.908.948,3.8,1.827,7.669,1.951l.12,0,.338.008q.236,0,.476,0t.476,0l.338-.008.12,0c3.873-.124,6.762-1,7.669-1.951V14.889c-1.675,1.15-5.216,1.759-8.6,1.759S5.775,16.039,4.1,14.889Z" transform="translate(343.9 9.205)"/><path class="a" d="M21.26,2.94C20.874,1.459,17.9,0,12.7,0S4.549,1.452,4.151,2.929A.334.334,0,0,0,4.1,3.1v.794C5.076,4.91,8.339,5.85,12.7,5.85s7.627-.941,8.6-1.959V3.1A.317.317,0,0,0,21.26,2.94Z" transform="translate(343.9 18.971)"/></g></svg>