<svg xmlns="http://www.w3.org/2000/svg" viewBox="0 0 39.852 25.361"><defs><style>.a{fill:#4a0089;}</style></defs><path class="a" d="M378.127,993.616a28.085,28.085,0,0,1,5.253-.725,19.2,19.2,0,0,1,5.253.725,18.614,18.614,0,0,1,5.072,2.174,4.37,4.37,0,0,1,2.355,3.442v4.529H370.7v-4.529a3.99,3.99,0,0,1,2.355-3.442A15.92,15.92,0,0,1,378.127,993.616ZM387,987.638a5.253,5.253,0,1,1,1.63-3.8A5.214,5.214,0,0,1,387,987.638Zm14.492,0a5.253,5.253,0,1,1,1.63-3.8A5.214,5.214,0,0,1,401.495,987.638Zm-3.8,5.253a19.2,19.2,0,0,1,5.253.725,22.836,22.836,0,0,1,5.253,2.174,3.991,3.991,0,0,1,2.355,3.442v4.529H399.683v-4.529c0-2.536-1.268-4.529-3.623-6.34Z" transform="translate(-370.7 -978.4)"/></svg>